<svg width="105" height="24" viewBox="0 0 105 24" fill="none" xmlns="http://www.w3.org/2000/svg">
<g clip-path="url(#clip0_24_2)">
<path d="M1.8 18V3.72H4.82V15.5H10.62V18H1.8ZM22.7886 12.52C22.7886 13.4267 22.6619 14.2333 22.4086 14.94C22.1686 15.6467 21.8153 16.2467 21.3486 16.74C20.8953 17.22 20.3419 17.5867 19.6886 17.84C19.0353 18.08 18.2953 18.2 17.4686 18.2C16.7086 18.2 16.0019 18.08 15.3486 17.84C14.7086 17.5867 14.1553 17.22 13.6886 16.74C13.2219 16.2467 12.8553 15.6467 12.5886 14.94C12.3353 14.2333 12.2086 13.4267 12.2086 12.52C12.2086 11.3067 12.4219 10.2867 12.8486 9.46C13.2753 8.62 13.8886 7.98 14.6886 7.54C15.4886 7.1 16.4353 6.88 17.5286 6.88C18.5553 6.88 19.4619 7.1 20.2486 7.54C21.0353 7.98 21.6553 8.62 22.1086 9.46C22.5619 10.2867 22.7886 11.3067 22.7886 12.52ZM15.2486 12.52C15.2486 13.24 15.3219 13.8467 15.4686 14.34C15.6286 14.82 15.8753 15.1867 16.2086 15.44C16.5419 15.68 16.9753 15.8 17.5086 15.8C18.0419 15.8 18.4686 15.68 18.7886 15.44C19.1219 15.1867 19.3619 14.82 19.5086 14.34C19.6686 13.8467 19.7486 13.24 19.7486 12.52C19.7486 11.8 19.6686 11.2 19.5086 10.72C19.3619 10.24 19.1219 9.88 18.7886 9.64C18.4553 9.4 18.0219 9.28 17.4886 9.28C16.7019 9.28 16.1286 9.55333 15.7686 10.1C15.4219 10.6333 15.2486 11.44 15.2486 12.52ZM27.4608 18L23.3008 7.08H26.4208L28.5208 13.3C28.6008 13.54 28.6674 13.7933 28.7208 14.06C28.7874 14.3267 28.8341 14.5867 28.8608 14.84C28.9008 15.0933 28.9274 15.3267 28.9408 15.54H29.0208C29.0341 15.3133 29.0608 15.0733 29.1008 14.82C29.1408 14.5667 29.1874 14.3133 29.2408 14.06C29.3074 13.7933 29.3808 13.54 29.4608 13.3L31.5608 7.08H34.6808L30.5208 18H27.4608ZM40.7475 6.88C41.7608 6.88 42.6275 7.07333 43.3475 7.46C44.0808 7.84667 44.6475 8.40667 45.0475 9.14C45.4475 9.87333 45.6475 10.7733 45.6475 11.84V13.28H38.6075C38.6342 14.12 38.8808 14.78 39.3475 15.26C39.8275 15.74 40.4875 15.98 41.3275 15.98C42.0342 15.98 42.6742 15.9133 43.2475 15.78C43.8208 15.6333 44.4142 15.4133 45.0275 15.12V17.42C44.4942 17.6867 43.9275 17.88 43.3275 18C42.7408 18.1333 42.0275 18.2 41.1875 18.2C40.0942 18.2 39.1275 18 38.2875 17.6C37.4475 17.1867 36.7875 16.5667 36.3075 15.74C35.8275 14.9133 35.5875 13.8733 35.5875 12.62C35.5875 11.34 35.8008 10.28 36.2275 9.44C36.6675 8.58667 37.2742 7.94667 38.0475 7.52C38.8208 7.09333 39.7208 6.88 40.7475 6.88ZM40.7675 9C40.1942 9 39.7142 9.18667 39.3275 9.56C38.9542 9.93333 38.7342 10.5133 38.6675 11.3H42.8475C42.8475 10.86 42.7675 10.4667 42.6075 10.12C42.4608 9.77333 42.2342 9.5 41.9275 9.3C41.6208 9.1 41.2342 9 40.7675 9ZM54.1639 6.88C54.3106 6.88 54.4839 6.88667 54.6839 6.9C54.8839 6.91333 55.0439 6.93333 55.1639 6.96L54.9439 9.76C54.8506 9.73333 54.7106 9.71333 54.5239 9.7C54.3506 9.67333 54.1972 9.66 54.0639 9.66C53.6772 9.66 53.3039 9.71333 52.9439 9.82C52.5839 9.91333 52.2572 10.0667 51.9639 10.28C51.6839 10.4933 51.4572 10.78 51.2839 11.14C51.1239 11.4867 51.0439 11.92 51.0439 12.44V18H48.0639V7.08H50.3239L50.7639 8.92H50.9039C51.1172 8.54667 51.3839 8.20667 51.7039 7.9C52.0239 7.59333 52.3906 7.34667 52.8039 7.16C53.2306 6.97333 53.6839 6.88 54.1639 6.88ZM61.7459 15.82C62.0793 15.82 62.3993 15.7867 62.7059 15.72C63.0126 15.6533 63.3193 15.5733 63.6259 15.48V17.7C63.3059 17.8333 62.9059 17.9467 62.4259 18.04C61.9593 18.1467 61.4459 18.2 60.8859 18.2C60.2326 18.2 59.6459 18.0933 59.1259 17.88C58.6193 17.6667 58.2126 17.3 57.9059 16.78C57.6126 16.2467 57.4659 15.5133 57.4659 14.58V9.32H56.0459V8.06L57.6859 7.06L58.5459 4.76H60.4459V7.08H63.5059V9.32H60.4459V14.58C60.4459 14.9933 60.5659 15.3067 60.8059 15.52C61.0459 15.72 61.3593 15.82 61.7459 15.82ZM75.7378 12.52C75.7378 13.4267 75.6111 14.2333 75.3578 14.94C75.1178 15.6467 74.7645 16.2467 74.2978 16.74C73.8445 17.22 73.2911 17.5867 72.6378 17.84C71.9845 18.08 71.2445 18.2 70.4178 18.2C69.6578 18.2 68.9511 18.08 68.2978 17.84C67.6578 17.5867 67.1045 17.22 66.6378 16.74C66.1711 16.2467 65.8045 15.6467 65.5378 14.94C65.2845 14.2333 65.1578 13.4267 65.1578 12.52C65.1578 11.3067 65.3711 10.2867 65.7978 9.46C66.2245 8.62 66.8378 7.98 67.6378 7.54C68.4378 7.1 69.3845 6.88 70.4778 6.88C71.5045 6.88 72.4111 7.1 73.1978 7.54C73.9845 7.98 74.6045 8.62 75.0578 9.46C75.5111 10.2867 75.7378 11.3067 75.7378 12.52ZM68.1978 12.52C68.1978 13.24 68.2711 13.8467 68.4178 14.34C68.5778 14.82 68.8245 15.1867 69.1578 15.44C69.4911 15.68 69.9245 15.8 70.4578 15.8C70.9911 15.8 71.4178 15.68 71.7378 15.44C72.0711 15.1867 72.3111 14.82 72.4578 14.34C72.6178 13.8467 72.6978 13.24 72.6978 12.52C72.6978 11.8 72.6178 11.2 72.4578 10.72C72.3111 10.24 72.0711 9.88 71.7378 9.64C71.4045 9.4 70.9711 9.28 70.4378 9.28C69.6511 9.28 69.0778 9.55333 68.7178 10.1C68.3711 10.6333 68.1978 11.44 68.1978 12.52ZM88.1206 12.52C88.1206 13.4267 87.994 14.2333 87.7406 14.94C87.5006 15.6467 87.1473 16.2467 86.6806 16.74C86.2273 17.22 85.674 17.5867 85.0206 17.84C84.3673 18.08 83.6273 18.2 82.8006 18.2C82.0406 18.2 81.334 18.08 80.6806 17.84C80.0406 17.5867 79.4873 17.22 79.0206 16.74C78.554 16.2467 78.1873 15.6467 77.9206 14.94C77.6673 14.2333 77.5406 13.4267 77.5406 12.52C77.5406 11.3067 77.754 10.2867 78.1806 9.46C78.6073 8.62 79.2206 7.98 80.0206 7.54C80.8206 7.1 81.7673 6.88 82.8606 6.88C83.8873 6.88 84.794 7.1 85.5806 7.54C86.3673 7.98 86.9873 8.62 87.4406 9.46C87.894 10.2867 88.1206 11.3067 88.1206 12.52ZM80.5806 12.52C80.5806 13.24 80.654 13.8467 80.8006 14.34C80.9606 14.82 81.2073 15.1867 81.5406 15.44C81.874 15.68 82.3073 15.8 82.8406 15.8C83.374 15.8 83.8006 15.68 84.1206 15.44C84.454 15.1867 84.694 14.82 84.8406 14.34C85.0006 13.8467 85.0806 13.24 85.0806 12.52C85.0806 11.8 85.0006 11.2 84.8406 10.72C84.694 10.24 84.454 9.88 84.1206 9.64C83.7873 9.4 83.354 9.28 82.8206 9.28C82.034 9.28 81.4606 9.55333 81.1006 10.1C80.754 10.6333 80.5806 11.44 80.5806 12.52ZM96.7834 6.88C97.9568 6.88 98.8968 7.2 99.6034 7.84C100.31 8.46667 100.663 9.48 100.663 10.88V18H97.6834V11.62C97.6834 10.8333 97.5434 10.2467 97.2634 9.86C96.9834 9.46 96.5368 9.26 95.9234 9.26C95.0168 9.26 94.3968 9.57333 94.0634 10.2C93.7301 10.8133 93.5634 11.7 93.5634 12.86V18H90.5834V7.08H92.8634L93.2634 8.48H93.4234C93.6634 8.10667 93.9568 7.80667 94.3034 7.58C94.6501 7.34 95.0368 7.16667 95.4634 7.06C95.8901 6.94 96.3301 6.88 96.7834 6.88Z" fill="#E91E63"/>
</g>
<defs>
<clipPath id="clip0_24_2">
<rect width="105" height="24" fill="white"/>
</clipPath>
</defs>
</svg>
